<svg width="120" height="120" viewBox="0 0 120 120" fill="none" xmlns="http://www.w3.org/2000/svg">
  <defs>
    <linearGradient id="ocean" x1="18" y1="16" x2="102" y2="104" gradientUnits="userSpaceOnUse">
      <stop stop-color="#062033"/>
      <stop offset="0.55" stop-color="#0B3B66"/>
      <stop offset="1" stop-color="#0BB3C8"/>
    </linearGradient>
    <linearGradient id="foam" x1="20" y1="76" x2="100" y2="76" gradientUnits="userSpaceOnUse">
      <stop stop-color="#F5FBFF" stop-opacity="0.95"/>
      <stop offset="1" stop-color="#E7FAFF" stop-opacity="0.85"/>
    </linearGradient>
  </defs>
  <circle cx="60" cy="60" r="52" fill="url(#ocean)"/>
  <circle cx="60" cy="60" r="52" stroke="rgba(255,255,255,0.22)" stroke-width="2"/>
  <path d="M24 70C33 60 43 60 52 70C61 80 71 80 80 70C89 60 99 60 108 70V86C108 96 100 104 90 104H30C20 104 12 96 12 86V70H24Z" fill="url(#foam)"/>
  <path d="M27 60C35 52 45 52 53 60C61 68 71 68 79 60C87 52 97 52 105 60" stroke="rgba(255,255,255,0.55)" stroke-width="4" stroke-linecap="round"/>
  <path d="M34 46C40 41 47 41 53 46" stroke="rgba(255,255,255,0.35)" stroke-width="3" stroke-linecap="round"/>
</svg>
